inDegrees=yes
name=ik_S56_A05_T01
DataType=double
version=3
OpenSimVersion=4.3-2021-08-27-4bc7ad9
endheader
time	pelvis_tilt	pelvis_list	pelvis_rotation	pelvis_tx	pelvis_ty	pelvis_tz	hip_flexion_r	hip_adduction_r	hip_rotation_r	knee_angle_r	knee_angle_r_beta	ankle_angle_r	subtalar_angle_r	mtp_angle_r	hip_flexion_l	hip_adduction_l	hip_rotation_l	knee_angle_l	knee_angle_l_beta	ankle_angle_l	subtalar_angle_l	mtp_angle_l	lumbar_extension	lumbar_bending	lumbar_rotation	arm_flex_r	arm_add_r	arm_rot_r	elbow_flex_r	pro_sup_r	wrist_flex_r	wrist_dev_r	arm_flex_l	arm_add_l	arm_rot_l	elbow_flex_l	pro_sup_l	wrist_flex_l	wrist_dev_l
21.65999999999963	-6.07312119199686	-2.872254335904832	29.78155401114419	0	0.9399999999999999	0	45.08441989993887	-9.998298385629097	-10.11013990556885	54.58342210792181	0.9526604327890992	0	0	0	45.08441989993887	-9.998298385629097	-10.11013990556885	54.58342210792181	0.9526604327890992	0	0	0	-4.919980852721319	-2.67558354769582	8.866447581550824	57.10476685301495	1.818286119887775	18.16119325321911	57.41163277028968	109.2031168258563	0	0	25.42742789595768	-6.419285554783419	1.701871057280935	44.5297960757072	128.6974505432186	0	0
21.67999999999963	-6.032489232948431	-2.805169277990661	29.60789225833159	0	0.9399999999999999	0	45.08439303409794	-9.998300280614744	-10.11006127735522	54.58351075449547	0.9526619799636802	0	0	0	45.08439303409794	-9.998300280614744	-10.11006127735522	54.58351075449547	0.9526619799636802	0	0	0	-4.854628404360725	-2.629727963642542	8.800045429603989	57.04862092910428	1.836537514008725	18.12616718180704	57.45476865408175	109.6691927046011	0	0	25.21553375507895	-6.466456271949236	1.620942230761866	44.55286411390011	128.6189262837113	0	0
21.69999999999963	-5.989473821597481	-2.76285923432639	29.46524457797875	0	0.9399999999999999	0	45.08436370623281	-9.998302346480875	-10.10997550747771	54.58360757858145	0.9526636698627758	0	0	0	45.08436370623281	-9.998302346480875	-10.10997550747771	54.58360757858145	0.9526636698627758	0	0	0	-4.798450326475968	-2.609084038223066	8.756441223525858	57.029340639845	1.828077237914276	17.99971855958486	57.3385544420056	110.1825141721372	0	0	25.07149935321319	-6.499280784197269	1.452915740763333	44.56071697863727	128.7225008649361	0	0
21.71999999999963	-5.949354297380769	-2.725623925932339	28.75368832122533	0	0.9399999999999999	0	45.08350073205931	-9.998344008023128	-10.10798503526223	54.58735372098118	0.9527290523818998	0	0	0	45.08350073205931	-9.998344008023128	-10.10798503526223	54.58735372098118	0.9527290523818998	0	0	0	-4.734457859181942	-2.636021242490997	9.284908864683008	56.15952829846682	-2.321246757226475	14.25227125803746	59.59470108398531	110.6942862221394	0	0	24.92287893897783	-6.535449746049985	1.413382842867586	44.61442435758302	128.7213069703301	0	0
21.73999999999963	-5.919918759580998	-2.681434572210798	28.47318355049447	0	0.9399999999999999	0	45.08302442990836	-9.998366705678723	-10.10689393745754	54.58941953208019	0.9527651075873016	0	0	0	45.08302442990836	-9.998366705678723	-10.10689393745754	54.58941953208019	0.9527651075873016	0	0	0	-4.68898316833034	-2.613587431228519	9.388276480149328	55.75966118887974	-3.616972543925702	13.04000472765754	60.06033822683607	110.8638838533472	0	0	24.72881747287881	-6.607343058563173	1.298054560898611	44.73734596044503	128.7725855307679	0	0
21.75999999999962	-5.886353994291809	-2.647525608941897	28.19044016597032	0	0.9399999999999999	0	45.08299022954943	-9.998369059833331	-10.10679516293398	54.58953261242934	0.9527670812117136	0	0	0	45.08299022954943	-9.998369059833331	-10.10679516293398	54.58953261242934	0.9527670812117136	0	0	0	-4.638736313395133	-2.61276777232737	9.518538544044397	55.27714919676495	-4.847178417213223	11.7994178328221	60.51899919055515	110.9795997341646	0	0	24.52974210179156	-6.654212416259964	1.098829544734253	44.81913467536739	128.8395481255989	0	0
21.77999999999962	-5.868091121131228	-2.621705469689774	27.98644977370924	0	0.9399999999999999	0	45.08295070718216	-9.998371777801678	-10.10668106729318	54.58966328754362	0.9527693619227081	0	0	0	45.08295070718216	-9.998371777801678	-10.10668106729318	54.58966328754362	0.9527693619227081	0	0	0	-4.605482443846728	-2.612633927790804	9.66029436623259	54.74136519267817	-5.919843040057806	10.78165872510549	61.49128030893331	110.8304166906882	0	0	24.34105343807334	-6.693241353728235	0.9840605740369752	44.95442606531386	128.899559176409	0	0
21.79999999999962	-5.83682011361168	-2.591036826903963	27.72480572850236	0	0.9399999999999999	0	45.08292244848396	-9.998373717310296	-10.10659958183707	54.58975681918673	0.9527709943578353	0	0	0	45.08292244848396	-9.998373717310296	-10.10659958183707	54.58975681918673	0.9527709943578353	0	0	0	-4.558632337188826	-2.613357457624294	9.795397978676085	54.24713265894907	-7.044024806175505	9.48471962191504	61.81259085324056	110.9337025434583	0	0	24.12389313164688	-6.750229640886174	0.8379950109790701	45.06024120945696	128.9251130744405	0	0
21.81999999999962	-5.815005233485415	-2.56782453852863	27.46742256642146	0	0.9399999999999999	0	45.08289511978781	-9.998375591079959	-10.10652082049093	54.58984729897749	0.9527725735280905	0	0	0	45.08289511978781	-9.998375591079959	-10.10652082049093	54.58984729897749	0.9527725735280905	0	0	0	-4.523738835165795	-2.615033498902644	9.922481998602537	53.68171879918543	-8.050899630210473	8.173222065343611	62.20227990553327	111.0197900210728	0	0	23.95434048087284	-6.805441962386027	0.6986891278557051	45.16324397705082	128.9375699616658	0	0
21.83999999999962	-5.793207016381072	-2.545985508066829	27.21997898802095	0	0.9399999999999999	0	45.08286947222567	-9.998377347531678	-10.1064469516596	54.58993225182505	0.9527740562349895	0	0	0	45.08286947222567	-9.998377347531678	-10.1064469516596	54.58993225182505	0.9527740562349895	0	0	0	-4.4889977436157	-2.618337315536955	10.05838658767577	53.08848868762987	-9.010285717727717	6.795992230932697	62.54535649405251	111.0420778957752	0	0	23.77757880985827	-6.867593178121751	0.5895958255395795	45.26808678292583	128.9344643435142	0	0
21.85999999999962	-5.770521680742148	-2.507392533130254	26.94336333408123	0	0.9399999999999999	0	45.08284350668614	-9.998379124613313	-10.10637218947847	54.59001825669007	0.9527755573030567	0	0	0	45.08284350668614	-9.998379124613313	-10.10637218947847	54.59001825669007	0.9527755573030567	0	0	0	-4.447859021196987	-2.60229015301114	10.14850440668537	52.51038522364969	-9.798974945379088	5.518916374107747	62.84688912824242	111.0421515731992	0	0	23.57694927768519	-6.933714268323217	0.3844550372231722	45.36839805005449	128.9192570737806	0	0
21.87999999999962	-5.755225578999606	-2.485589862719642	26.69698058184641	0	0.9399999999999999	0	45.08281562056897	-9.998381031994354	-10.10629191853728	54.59011061431904	0.9527771692477717	0	0	0	45.08281562056897	-9.998381031994354	-10.10629191853728	54.59011061431904	0.9527771692477717	0	0	0	-4.420533209364921	-2.599762023154221	10.25916843081344	51.97915660168417	-10.54461693986036	4.181539697512282	63.07074857647411	111.0417556836914	0	0	23.4131662119787	-7.023535859723848	0.2281772333029957	45.4800978487951	128.8952896487659	0	0
21.89999999999962	-5.738606427568853	-2.450461856169391	26.57734441107634	0	0.9399999999999999	0	45.08278717190834	-9.998382976069786	-10.1062100669776	54.59020485434885	0.9527788140465789	0	0	0	45.08278717190834	-9.998382976069786	-10.1062100669776	54.59020485434885	0.9527788140465789	0	0	0	-4.391227488968209	-2.573065399935734	10.23582411492605	51.97249186201728	-10.60947347537232	4.048520712106845	62.62626988971577	110.9318111251772	0	0	23.32507361286302	-7.036214713408741	0.08052549345132716	45.47279589985566	128.8691132568603	0	0
21.91999999999962	-5.727646584165186	-2.424559868039378	26.25638933660187	0	0.9399999999999999	0	45.08226282514201	-9.998407631743039	-10.10501702118202	54.59247910361852	0.9528185071843457	0	0	0	45.08226282514201	-9.998407631743039	-10.10501702118202	54.59247910361852	0.9528185071843457	0	0	0	-4.370186123273006	-2.564477423678704	10.4431019942964	50.99283534198751	-11.84085599760515	1.671272852573376	63.34528630189729	111.1174228586492	0	0	23.17260270579073	-7.105442428667348	-0.07572059196762516	45.57990953656914	128.8697324720241	0	0
21.93999999999962	-5.71982845609012	-2.396670033834523	26.01557139181917	0	0.9399999999999999	0	45.08223679694294	-9.998409392600161	-10.10494254427318	54.59256541858042	0.9528200136646247	0	0	0	45.08223679694294	-9.998409392600161	-10.10494254427318	54.59256541858042	0.9528200136646247	0	0	0	-4.34690945156299	-2.553442772287883	10.56340690289537	50.55267261589675	-12.49662504058586	0.2679211202755825	62.9442778635706	110.9222127105919	0	0	23.114191373569	-7.102549564505747	-0.2035999712168898	45.56269854212921	128.8977047913649	0	0
21.95999999999962	-5.716213942664589	-2.370033854128657	25.85017772589732	0	0.9399999999999999	0	45.08220863690217	-9.998411295544605	-10.10486201718573	54.59265884518309	0.9528216442664502	0	0	0	45.08220863690217	-9.998411295544605	-10.10486201718573	54.59265884518309	0.9528216442664502	0	0	0	-4.329718096483078	-2.537448578820761	10.63752033476697	50.06956487092121	-12.84825210258291	-0.6593924643422384	63.44334229450732	111.1209369623778	0	0	22.89887370189664	-7.227808687372202	-0.3506334614011044	45.71876288967179	128.9011290666175	0	0
21.97999999999962	-5.717758315733127	-2.339219242139101	25.62717721288072	0	0.9399999999999999	0	45.08218854424871	-9.998412651416491	-10.1048046057993	54.59272555206869	0.9528228085212377	0	0	0	45.08218854424871	-9.998412651416491	-10.1048046057993	54.59272555206869	0.9528228085212377	0	0	0	-4.314826935145055	-2.517090536767662	10.72930951304304	49.67907111289673	-13.34197879650246	-1.929622897514468	62.99540465692475	110.9161903169252	0	0	22.699584197781	-7.338824415455747	-0.3476171786944216	45.86307204870219	128.784296184618	0	0
21.99999999999962	-5.712369315925574	-2.314555498702363	25.44614949301897	0	0.9399999999999999	0	45.08216925963235	-9.998413951325114	-10.10474953833431	54.59278961334605	0.9528239266014507	0	0	0	45.08216925963235	-9.998413951325114	-10.10474953833431	54.59278961334605	0.9528239266014507	0	0	0	-4.297462812812065	-2.501992037232305	10.7878242626855	49.29324763580121	-13.68193641297096	-2.883227632823421	62.90048394003708	110.9889047738285	0	0	22.64440458465424	-7.34464222053929	-0.4557379610108213	45.87372964656723	128.8273634877335	0	0
22.01999999999962	-5.716229612525504	-2.287220299392544	25.28598397903506	0	0.9399999999999999	0	45.08214758379534	-9.998415414900863	-10.1046875669042	54.59286146745101	0.9528251806921633	0	0	0	45.08214758379534	-9.998415414900863	-10.1046875669042	54.59286146745101	0.9528251806921633	0	0	0	-4.288254298461177	-2.47858929906967	10.82504464314872	48.93345761564266	-13.95273804718274	-3.710167492454556	62.84011304545173	111.1173538986605	0	0	22.47782720861398	-7.427391685113966	-0.2724815014831067	45.96609466784221	128.7165419845766	0	0
22.03999999999962	-5.720788166980137	-2.278439899043049	25.17633320716781	0	0.9399999999999999	0	45.08212689546841	-9.998416809373545	-10.10462848041222	54.5929301240752	0.9528263789763086	0	0	0	45.08212689546841	-9.998416809373545	-10.10462848041222	54.5929301240752	0.9528263789763086	0	0	0	-4.287085593243085	-2.473234858363048	10.87890384573725	48.61250803371387	-14.18945272994443	-4.435738783086206	62.77622559342471	111.2444928866787	0	0	22.40544677407137	-7.478099512690994	-0.1948631437216496	46.03599039242231	128.6135965391099	0	0
